<svg xmlns="http://www.w3.org/2000/svg" width="1024" height="1024" viewBox="0 0 1024 1024">
  <defs>
    <linearGradient id="bg" x1="0" y1="0" x2="1" y2="1">
      <stop offset="0%" stop-color="#6366f1"/>
      <stop offset="100%" stop-color="#8b5cf6"/>
    </linearGradient>
    <linearGradient id="accent" x1="0" y1="0" x2="0" y2="1">
      <stop offset="0%" stop-color="#c4b5fd"/>
      <stop offset="100%" stop-color="#a78bfa"/>
    </linearGradient>
  </defs>
  <!-- Background rounded rect -->
  <rect x="64" y="64" width="896" height="896" rx="180" ry="180" fill="url(#bg)"/>
  <!-- Inner gear-like shape -->
  <circle cx="512" cy="400" r="160" fill="none" stroke="rgba(255,255,255,0.3)" stroke-width="40"/>
  <circle cx="512" cy="400" r="80" fill="rgba(255,255,255,0.2)"/>
  <!-- Spark shapes -->
  <path d="M340 340 L320 380 Q380 400 400 440 Q420 400 480 380 Q420 360 400 320 Q380 360 340 340Z" fill="rgba(255,255,255,0.6)"/>
  <path d="M680 280 L660 340 Q740 360 760 420 Q780 360 860 340 Q780 320 760 260 Q740 320 680 280Z" fill="rgba(255,255,255,0.4)"/>
  <!-- S letter path -->
  <text x="512" y="560" text-anchor="middle" font-family="system-ui, -apple-system, sans-serif" font-weight="900" font-size="140" fill="white" opacity="0.9">S</text>
  <!-- Bottom text -->
  <text x="512" y="740" text-anchor="middle" font-family="system-ui, -apple-system, sans-serif" font-weight="700" font-size="72" fill="rgba(255,255,255,0.5)" letter-spacing="8">FORGE</text>
</svg>
